<svg width="1920" height="1889" viewBox="0 0 1920 1889" fill="none" xmlns="http://www.w3.org/2000/svg">
<rect width="1920" height="1889" fill="white"/>
<rect width="1920" height="1889" fill="black"/>
<rect x="257" y="423" width="1.89394" height="1.89394" fill="white" fill-opacity="0.5"/>
<rect x="1032" y="138" width="1.39972" height="1.39972" fill="white" fill-opacity="0.4"/>
<rect x="1641" y="868" width="2.38901" height="2.38901" fill="white" fill-opacity="0.4"/>
<rect x="1378" y="1268" width="1.20077" height="1.20077" fill="white" fill-opacity="0.6"/>
<rect x="1555" y="160" width="1.26051" height="1.26051" fill="white" fill-opacity="0.6"/>
<rect x="374" y="377" width="2.99637" height="2.99637" fill="white" fill-opacity="0.4"/>
<rect x="1227" y="1561" width="1.25772" height="1.25772" fill="white" fill-opacity="0.3"/>
<rect x="807" y="1513" width="1.41886" height="1.41886" fill="white" fill-opacity="0.6"/>
<rect x="283" y="876" width="2.4501" height="2.4501" fill="white" fill-opacity="0.4"/>
<rect x="761" y="39" width="1.33417" height="1.33417" fill="white" fill-opacity="0.5"/>
<rect x="420" y="506" width="1.00579" height="1.00579" fill="white" fill-opacity="0.5"/>
<rect x="350" y="836" width="1.83287" height="1.83287" fill="white" fill-opacity="0.6"/>
<rect x="1384" y="1267" width="1.01069" height="1.01069" fill="white" fill-opacity="0.6"/>
<rect x="900" y="1183" width="1.37937" height="1.37937" fill="white" fill-opacity="0.4"/>
<rect x="1434" y="1657" width="2.01454" height="2.01454" fill="white" fill-opacity="0.5"/>
<rect x="1489" y="988" width="2.79259" height="2.79259" fill="white" fill-opacity="0.3"/>
<rect x="786" y="123" width="1.34908" height="1.34908" fill="white" fill-opacity="0.6"/>
<rect x="549" y="1533" width="2.0136" height="2.0136" fill="white" fill-opacity="0.3"/>
<rect x="817" y="985" width="1.09155" height="1.09155" fill="white" fill-opacity="0.5"/>
<rect x="352" y="229" width="1.27399" height="1.27399" fill="white" fill-opacity="0.5"/>
<rect x="1643" y="888" width="1.14294" height="1.14294" fill="white" fill-opacity="0.4"/>
<rect x="795" y="1338" width="2.5088" height="2.5088" fill="white" fill-opacity="0.4"/>
<rect x="1388" y="755" width="2.10196" height="2.10196" fill="white" fill-opacity="0.4"/>
<rect x="214" y="1474" width="2.22011" height="2.22011" fill="white" fill-opacity="0.6"/>
<rect x="1692" y="1098" width="1.02752" height="1.02752" fill="white" fill-opacity="0.3"/>
<rect x="110" y="904" width="2.59998" height="2.59998" fill="white" fill-opacity="0.3"/>
<rect x="1378" y="256" width="1.66225" height="1.66225" fill="white" fill-opacity="0.5"/>
<rect x="611" y="1432" width="1.07349" height="1.07349" fill="white" fill-opacity="0.4"/>
<rect x="1306" y="1088" width="2.09562" height="2.09562" fill="white" fill-opacity="0.6"/>
<rect x="1096" y="675" width="1.16554" height="1.16554" fill="white" fill-opacity="0.6"/>
<rect x="578" y="66" width="1.71556" height="1.71556" fill="white" fill-opacity="0.3"/>
<rect x="1758" y="528" width="1.3679" height="1.3679" fill="white" fill-opacity="0.6"/>
<rect x="571" y="89" width="1.81925" height="1.81925" fill="white" fill-opacity="0.5"/>
<rect x="1634" y="960" width="1.1257" height="1.1257" fill="white" fill-opacity="0.6"/>
<rect x="162" y="575" width="1.12374" height="1.12374" fill="white" fill-opacity="0.4"/>
<rect x="947" y="1023" width="2.89121" height="2.89121" fill="white" fill-opacity="0.6"/>
<rect x="1695" y="93" width="1.312" height="1.312" fill="white" fill-opacity="0.5"/>
<rect x="518" y="519" width="2.58861" height="2.58861" fill="white" fill-opacity="0.5"/>
<rect x="777" y="879" width="2.36302" height="2.36302" fill="white" fill-opacity="0.4"/>
<rect x="689" y="1802" width="1.53157" height="1.53157" fill="white" fill-opacity="0.5"/>
<rect x="1291" y="557" width="2.79522" height="2.79522" fill="white" fill-opacity="0.5"/>
<rect x="798" y="1454" width="1.64867" height="1.64867" fill="white" fill-opacity="0.6"/>
<rect x="1625" y="482" width="2.76996" height="2.76996" fill="white" fill-opacity="0.3"/>
<rect x="401" y="327" width="1.03632" height="1.03632" fill="white" fill-opacity="0.4"/>
<rect x="1587" y="298" width="1.36988" height="1.36988" fill="white" fill-opacity="0.4"/>
<rect x="1794" y="998" width="2.5197" height="2.5197" fill="white" fill-opacity="0.6"/>
<rect x="1391" y="1184" width="1.18231" height="1.18231" fill="white" fill-opacity="0.5"/>
<rect x="1035" y="602" width="1.42482" height="1.42482" fill="white" fill-opacity="0.4"/>
<rect x="1359" y="1147" width="1.03149" height="1.03149" fill="white" fill-opacity="0.6"/>
<rect x="1667" y="793" width="2.48053" height="2.48053" fill="white" fill-opacity="0.3"/>
<rect x="740" y="1199" width="1.40642" height="1.40642" fill="white" fill-opacity="0.3"/>
<rect x="77" y="290" width="2.88395" height="2.88395" fill="white" fill-opacity="0.5"/>
<rect x="1003" y="1720" width="2.27742" height="2.27742" fill="white" fill-opacity="0.6"/>
<rect x="1206" y="1667" width="2.58607" height="2.58607" fill="white" fill-opacity="0.4"/>
<rect x="972" y="181" width="1.19418" height="1.19418" fill="white" fill-opacity="0.6"/>
<rect x="144" y="1048" width="1.90331" height="1.90331" fill="white" fill-opacity="0.6"/>
<rect x="1364" y="1212" width="2.01318" height="2.01318" fill="white" fill-opacity="0.5"/>
<rect x="783" y="1812" width="2.75845" height="2.75845" fill="white" fill-opacity="0.6"/>
<rect x="674" y="319" width="1.42027" height="1.42027" fill="white" fill-opacity="0.6"/>
<rect x="262" y="328" width="2.3056" height="2.3056" fill="white" fill-opacity="0.4"/>
<rect x="664" y="1544" width="2.92152" height="2.92152" fill="white" fill-opacity="0.3"/>
<rect x="1880" y="1607" width="2.3516" height="2.3516" fill="white" fill-opacity="0.5"/>
<rect x="645" y="241" width="2.72746" height="2.72746" fill="white" fill-opacity="0.6"/>
<rect x="1137" y="465" width="2.8655" height="2.8655" fill="white" fill-opacity="0.5"/>
<rect x="1566" y="211" width="2.57107" height="2.57107" fill="white" fill-opacity="0.5"/>
<rect x="1854" y="547" width="2.90424" height="2.90424" fill="white" fill-opacity="0.4"/>
<rect x="206" y="672" width="2.45602" height="2.45602" fill="white" fill-opacity="0.6"/>
<rect x="448" y="1402" width="2.95846" height="2.95846" fill="white" fill-opacity="0.4"/>
<rect x="1385" y="885" width="1.25761" height="1.25761" fill="white" fill-opacity="0.4"/>
<rect x="1006" y="765" width="1.37732" height="1.37732" fill="white" fill-opacity="0.5"/>
<rect x="1161" y="1126" width="2.39702" height="2.39702" fill="white" fill-opacity="0.6"/>
<rect x="1844" y="1317" width="2.56456" height="2.56456" fill="white" fill-opacity="0.6"/>
<rect x="1799" y="1397" width="1.39888" height="1.39888" fill="white" fill-opacity="0.4"/>
<rect x="1261" y="1467" width="1.81404" height="1.81404" fill="white" fill-opacity="0.5"/>
<rect x="345" y="668" width="2.16284" height="2.16284" fill="white" fill-opacity="0.5"/>
<rect x="412" y="94" width="2.92627" height="2.92627" fill="white" fill-opacity="0.3"/>
<rect x="228" y="1183" width="1.89666" height="1.89666" fill="white" fill-opacity="0.5"/>
<rect x="259" y="626" width="1.53058" height="1.53058" fill="white" fill-opacity="0.6"/>
<rect x="930" y="1849" width="1.28649" height="1.28649" fill="white" fill-opacity="0.5"/>
<rect x="173" y="1770" width="1.27549" height="1.27549" fill="white" fill-opacity="0.5"/>
<rect x="1074" y="1804" width="1.37447" height="1.37447" fill="white" fill-opacity="0.5"/>
<rect x="689" y="777" width="1.19692" height="1.19692" fill="white" fill-opacity="0.6"/>
<rect x="1218" y="1630" width="1.47243" height="1.47243" fill="white" fill-opacity="0.6"/>
<rect x="583" y="1657" width="2.78572" height="2.78572" fill="white" fill-opacity="0.3"/>
<rect x="356" y="390" width="2.76842" height="2.76842" fill="white" fill-opacity="0.5"/>
<rect x="996" y="700" width="1.32861" height="1.32861" fill="white" fill-opacity="0.6"/>
<rect x="1139" y="389" width="1.28066" height="1.28066" fill="white" fill-opacity="0.4"/>
<rect x="1062" y="1055" width="2.462" height="2.462" fill="white" fill-opacity="0.4"/>
<rect x="940" y="1550" width="1.2613" height="1.2613" fill="white" fill-opacity="0.6"/>
<rect x="1220" y="595" width="1.07709" height="1.07709" fill="white" fill-opacity="0.5"/>
<rect x="1605" y="1732" width="2.00287" height="2.00287" fill="white" fill-opacity="0.3"/>
<rect x="356" y="235" width="1.96491" height="1.96491" fill="white" fill-opacity="0.4"/>
<rect x="851" y="505" width="1.70761" height="1.70761" fill="white" fill-opacity="0.5"/>
<rect x="1025" y="1026" width="2.88765" height="2.88765" fill="white" fill-opacity="0.6"/>
<rect x="882" y="453" width="1.64359" height="1.64359" fill="white" fill-opacity="0.4"/>
<rect x="1796" y="527" width="1.21088" height="1.21088" fill="white" fill-opacity="0.4"/>
<rect x="826" y="715" width="2.57595" height="2.57595" fill="white" fill-opacity="0.6"/>
<rect x="123" y="1862" width="2.588" height="2.588" fill="white" fill-opacity="0.4"/>
<rect y="762" width="2.77639" height="2.77639" fill="white" fill-opacity="0.4"/>
<rect x="1125" y="1486" width="2.89737" height="2.89737" fill="white" fill-opacity="0.4"/>
<g clip-path="url(#clip0_8_311)">
<rect width="1920" height="1889" fill="black"/>
<rect x="341" y="718" width="1.03216" height="1.03216" fill="white" fill-opacity="0.6"/>
<rect x="680" y="370" width="1.23109" height="1.23109" fill="white" fill-opacity="0.4"/>
<rect x="273" y="350" width="2.06518" height="2.06518" fill="white" fill-opacity="0.4"/>
<rect y="49" width="1.07553" height="1.07553" fill="white" fill-opacity="0.3"/>
<rect x="876" y="703" width="1.96387" height="1.96387" fill="white" fill-opacity="0.4"/>
<rect x="795" y="1541" width="1.40955" height="1.40955" fill="white" fill-opacity="0.5"/>
<rect x="1520" y="1182" width="1.65157" height="1.65157" fill="white" fill-opacity="0.5"/>
<rect x="1638" y="288" width="1.02717" height="1.02717" fill="white" fill-opacity="0.6"/>
<rect x="1484" y="1782" width="1.82559" height="1.82559" fill="white" fill-opacity="0.5"/>
<rect x="622" y="1114" width="1.51064" height="1.51064" fill="white" fill-opacity="0.3"/>
<rect x="1785" y="1874" width="1.82619" height="1.82619" fill="white" fill-opacity="0.6"/>
<rect x="1146" y="494" width="1.17768" height="1.17768" fill="white" fill-opacity="0.5"/>
<rect x="903" y="1223" width="1.79219" height="1.79219" fill="white" fill-opacity="0.4"/>
<rect x="1025" y="1850" width="1.91296" height="1.91296" fill="white" fill-opacity="0.5"/>
<rect x="1777" y="313" width="2.47465" height="2.47465" fill="white" fill-opacity="0.5"/>
<rect x="849" y="473" width="1.26067" height="1.26067" fill="white" fill-opacity="0.4"/>
<rect x="1830" y="486" width="1.63786" height="1.63786" fill="white" fill-opacity="0.5"/>
<rect x="313" y="1483" width="2.85656" height="2.85656" fill="white" fill-opacity="0.5"/>
<rect x="1526" y="1524" width="2.60909" height="2.60909" fill="white" fill-opacity="0.4"/>
<rect x="826" y="458" width="2.1819" height="2.1819" fill="white" fill-opacity="0.5"/>
<rect x="282" y="319" width="1.19265" height="1.19265" fill="white" fill-opacity="0.6"/>
<rect x="1006" y="1314" width="2.99189" height="2.99189" fill="white" fill-opacity="0.4"/>
<rect x="1325" y="60" width="2.26988" height="2.26988" fill="white" fill-opacity="0.4"/>
<rect x="633" y="885" width="1.63913" height="1.63913" fill="white" fill-opacity="0.6"/>
<rect x="1457" y="504" width="2.51228" height="2.51228" fill="white" fill-opacity="0.6"/>
<rect x="1242" y="1734" width="2.56775" height="2.56775" fill="white" fill-opacity="0.3"/>
<rect x="910" y="1253" width="1.03722" height="1.03722" fill="white" fill-opacity="0.5"/>
<rect x="1764" y="1163" width="1.86658" height="1.86658" fill="white" fill-opacity="0.4"/>
<rect x="844" y="1568" width="2.12342" height="2.12342" fill="white" fill-opacity="0.3"/>
<rect x="1870" y="586" width="1.70884" height="1.70884" fill="white" fill-opacity="0.4"/>
<rect x="788" y="1394" width="1.40969" height="1.40969" fill="white" fill-opacity="0.4"/>
<rect x="1271" y="305" width="2.88051" height="2.88051" fill="white" fill-opacity="0.4"/>
<rect x="764" y="1600" width="2.00418" height="2.00418" fill="white" fill-opacity="0.5"/>
<rect x="1451" y="1150" width="1.79372" height="1.79372" fill="white" fill-opacity="0.3"/>
<rect x="236" y="325" width="2.77195" height="2.77195" fill="white" fill-opacity="0.4"/>
<rect x="313" y="1597" width="1.42922" height="1.42922" fill="white" fill-opacity="0.5"/>
<rect x="42" y="1378" width="2.72926" height="2.72926" fill="white" fill-opacity="0.5"/>
<rect x="405" y="1700" width="1.95111" height="1.95111" fill="white" fill-opacity="0.6"/>
<rect x="453" y="877" width="1.67965" height="1.67965" fill="white" fill-opacity="0.3"/>
<rect x="910" y="1594" width="1.13509" height="1.13509" fill="white" fill-opacity="0.6"/>
<rect x="15" y="1347" width="2.50506" height="2.50506" fill="white" fill-opacity="0.5"/>
<rect x="1652" y="1882" width="1.49974" height="1.49974" fill="white" fill-opacity="0.3"/>
<rect x="1322" y="903" width="2.3564" height="2.3564" fill="white" fill-opacity="0.3"/>
<rect x="1036" y="1540" width="2.79731" height="2.79731" fill="white" fill-opacity="0.3"/>
<rect x="1614" y="1331" width="1.86057" height="1.86057" fill="white" fill-opacity="0.3"/>
<rect x="1112" y="675" width="2.23922" height="2.23922" fill="white" fill-opacity="0.5"/>
<rect x="413" y="1795" width="2.40354" height="2.40354" fill="white" fill-opacity="0.4"/>
<rect x="1546" y="971" width="1.04021" height="1.04021" fill="white" fill-opacity="0.5"/>
<rect x="373" y="700" width="1.13905" height="1.13905" fill="white" fill-opacity="0.4"/>
<rect x="1339" y="375" width="2.33054" height="2.33054" fill="white" fill-opacity="0.4"/>
<rect x="1232" y="1127" width="2.93108" height="2.93108" fill="white" fill-opacity="0.3"/>
<rect x="1582" y="843" width="1.36541" height="1.36541" fill="white" fill-opacity="0.4"/>
<rect x="1743" y="1169" width="1.14315" height="1.14315" fill="white" fill-opacity="0.3"/>
<rect x="1351" y="1340" width="2.776" height="2.776" fill="white" fill-opacity="0.4"/>
<rect x="748" y="1280" width="2.72797" height="2.72797" fill="white" fill-opacity="0.5"/>
<rect x="1373" y="282" width="2.67103" height="2.67103" fill="white" fill-opacity="0.5"/>
<rect x="1345" y="409" width="1.05113" height="1.05113" fill="white" fill-opacity="0.5"/>
<rect x="623" y="160" width="2.88163" height="2.88163" fill="white" fill-opacity="0.6"/>
<rect x="1536" y="1092" width="2.0015" height="2.0015" fill="white" fill-opacity="0.6"/>
<rect x="1606" y="1195" width="1.71819" height="1.71819" fill="white" fill-opacity="0.4"/>
<rect x="1786" y="1486" width="1.48234" height="1.48234" fill="white" fill-opacity="0.5"/>
<rect x="224" y="1135" width="2.92683" height="2.92683" fill="white" fill-opacity="0.4"/>
<rect x="1652" y="430" width="1.63691" height="1.63691" fill="white" fill-opacity="0.5"/>
<rect x="443" y="971" width="1.45844" height="1.45844" fill="white" fill-opacity="0.3"/>
<rect x="910" y="1543" width="2.87536" height="2.87536" fill="white" fill-opacity="0.5"/>
<rect x="1144" y="1143" width="1.57625" height="1.57625" fill="white" fill-opacity="0.6"/>
<rect x="1401" y="513" width="1.73899" height="1.73899" fill="white" fill-opacity="0.5"/>
<rect x="1490" y="830" width="2.51662" height="2.51662" fill="white" fill-opacity="0.4"/>
<rect x="499" y="1013" width="1.05191" height="1.05191" fill="white" fill-opacity="0.6"/>
<rect x="373" y="744" width="1.86297" height="1.86297" fill="white" fill-opacity="0.3"/>
<rect x="1194" y="1354" width="1.27979" height="1.27979" fill="white" fill-opacity="0.4"/>
<rect x="119" y="1426" width="2.54582" height="2.54582" fill="white" fill-opacity="0.6"/>
<rect x="935" y="1791" width="1.20659" height="1.20659" fill="white" fill-opacity="0.5"/>
<rect x="265" y="457" width="2.09809" height="2.09809" fill="white" fill-opacity="0.6"/>
<rect x="1164" y="976" width="1.10086" height="1.10086" fill="white" fill-opacity="0.6"/>
<rect x="1277" y="1857" width="2.67903" height="2.67903" fill="white" fill-opacity="0.4"/>
<rect x="752" y="1548" width="1.55861" height="1.55861" fill="white" fill-opacity="0.6"/>
<rect x="1557" y="1120" width="1.23735" height="1.23735" fill="white" fill-opacity="0.4"/>
<rect x="1435" y="1875" width="1.5748" height="1.5748" fill="white" fill-opacity="0.3"/>
<rect x="1821" y="1644" width="1.8295" height="1.8295" fill="white" fill-opacity="0.3"/>
<rect x="1239" y="842" width="1.31531" height="1.31531" fill="white" fill-opacity="0.5"/>
<rect x="68" y="1761" width="2.23372" height="2.23372" fill="white" fill-opacity="0.3"/>
<rect x="1088" y="1775" width="1.48679" height="1.48679" fill="white" fill-opacity="0.5"/>
<rect x="107" y="648" width="1.83912" height="1.83912" fill="white" fill-opacity="0.5"/>
<rect x="1113" y="1009" width="2.58788" height="2.58788" fill="white" fill-opacity="0.5"/>
<rect x="549" y="800" width="1.33317" height="1.33317" fill="white" fill-opacity="0.3"/>
<rect x="852" y="236" width="2.14107" height="2.14107" fill="white" fill-opacity="0.5"/>
<rect x="792" y="1625" width="2.79187" height="2.79187" fill="white" fill-opacity="0.4"/>
<rect x="947" y="580" width="1.14556" height="1.14556" fill="white" fill-opacity="0.5"/>
<rect x="1422" y="220" width="2.37184" height="2.37184" fill="white" fill-opacity="0.4"/>
<rect x="582" y="458" width="1.23197" height="1.23197" fill="white" fill-opacity="0.6"/>
<rect x="879" y="1831" width="1.24376" height="1.24376" fill="white" fill-opacity="0.4"/>
<rect x="1490" y="1670" width="2.02414" height="2.02414" fill="white" fill-opacity="0.6"/>
<rect x="1395" y="487" width="1.08757" height="1.08757" fill="white" fill-opacity="0.4"/>
<rect x="555" y="1322" width="1.70187" height="1.70187" fill="white" fill-opacity="0.5"/>
<rect x="1867" y="1574" width="2.86657" height="2.86657" fill="white" fill-opacity="0.4"/>
<rect x="352" y="627" width="2.98143" height="2.98143" fill="white" fill-opacity="0.5"/>
<rect x="338" y="294" width="2.64567" height="2.64567" fill="white" fill-opacity="0.6"/>
<rect x="1419" y="1614" width="1.24733" height="1.24733" fill="white" fill-opacity="0.3"/>
<rect x="1088" y="774" width="1.59195" height="1.59195" fill="white" fill-opacity="0.5"/>
<rect x="157" y="828" width="2.332" height="2.332" fill="white" fill-opacity="0.4"/>
<rect x="181" y="713" width="2.04423" height="2.04423" fill="white" fill-opacity="0.4"/>
<rect x="891" y="76" width="2.63631" height="2.63631" fill="white" fill-opacity="0.5"/>
<rect x="1613" y="1184" width="2.48728" height="2.48728" fill="white" fill-opacity="0.6"/>
<rect x="1525" y="1746" width="2.01708" height="2.01708" fill="white" fill-opacity="0.5"/>
<rect x="1204" y="1065" width="1.32728" height="1.32728" fill="white" fill-opacity="0.3"/>
<rect x="1083" y="1357" width="1.63257" height="1.63257" fill="white" fill-opacity="0.6"/>
<rect x="638" y="1301" width="2.04983" height="2.04983" fill="white" fill-opacity="0.4"/>
<rect x="262" y="1224" width="2.84137" height="2.84137" fill="white" fill-opacity="0.6"/>
<rect x="691" y="614" width="2.51921" height="2.51921" fill="white" fill-opacity="0.5"/>
<rect x="113" y="257" width="2.33626" height="2.33626" fill="white" fill-opacity="0.3"/>
<rect x="1108" y="355" width="2.24743" height="2.24743" fill="white" fill-opacity="0.4"/>
<rect x="1418" y="1244" width="1.81075" height="1.81075" fill="white" fill-opacity="0.6"/>
<rect x="751" y="1362" width="1.42072" height="1.42072" fill="white" fill-opacity="0.4"/>
<rect x="1589" y="1830" width="2.1866" height="2.1866" fill="white" fill-opacity="0.4"/>
<rect x="1638" y="117" width="1.71237" height="1.71237" fill="white" fill-opacity="0.6"/>
<rect x="1027" y="522" width="2.41002" height="2.41002" fill="white" fill-opacity="0.4"/>
<rect x="1656" y="1396" width="2.26691" height="2.26691" fill="white" fill-opacity="0.6"/>
<rect x="217" y="1375" width="1.94019" height="1.94019" fill="white" fill-opacity="0.6"/>
<rect x="135" y="200" width="2.50725" height="2.50725" fill="white" fill-opacity="0.5"/>
<rect x="1914" y="1803" width="2.6732" height="2.6732" fill="white" fill-opacity="0.4"/>
<rect x="1710" y="1002" width="2.32668" height="2.32668" fill="white" fill-opacity="0.3"/>
<rect x="1283" y="839" width="2.00361" height="2.00361" fill="white" fill-opacity="0.4"/>
<rect x="1249" y="986" width="1.82544" height="1.82544" fill="white" fill-opacity="0.4"/>
<rect x="973" y="1797" width="1.75275" height="1.75275" fill="white" fill-opacity="0.4"/>
<rect x="1517" y="1176" width="2.92795" height="2.92795" fill="white" fill-opacity="0.5"/>
<rect x="1307" y="376" width="2.44759" height="2.44759" fill="white" fill-opacity="0.4"/>
<rect x="234" y="1857" width="1.55915" height="1.55915" fill="white" fill-opacity="0.6"/>
<rect x="351" y="1426" width="2.2311" height="2.2311" fill="white" fill-opacity="0.6"/>
<rect x="1241" y="306" width="1.70249" height="1.70249" fill="white" fill-opacity="0.4"/>
<rect x="1149" y="781" width="2.65054" height="2.65054" fill="white" fill-opacity="0.6"/>
<rect x="969" y="273" width="2.34957" height="2.34957" fill="white" fill-opacity="0.5"/>
<rect x="745" y="1014" width="1.0466" height="1.0466" fill="white" fill-opacity="0.5"/>
<rect x="1433" y="1087" width="2.71361" height="2.71361" fill="white" fill-opacity="0.5"/>
<rect x="322" y="1324" width="2.03043" height="2.03043" fill="white" fill-opacity="0.6"/>
<rect x="653" y="1606" width="2.58668" height="2.58668" fill="white" fill-opacity="0.4"/>
<rect x="1648" y="1835" width="1.78397" height="1.78397" fill="white" fill-opacity="0.6"/>
<rect x="1235" y="249" width="2.52585" height="2.52585" fill="white" fill-opacity="0.5"/>
<rect x="569" y="586" width="2.3898" height="2.3898" fill="white" fill-opacity="0.4"/>
<rect x="7" y="727" width="1.91447" height="1.91447" fill="white" fill-opacity="0.5"/>
<rect x="586" y="705" width="2.438" height="2.438" fill="white" fill-opacity="0.6"/>
<rect x="1026" y="1331" width="2.11686" height="2.11686" fill="white" fill-opacity="0.5"/>
<rect x="935" y="80" width="1.77017" height="1.77017" fill="white" fill-opacity="0.5"/>
<rect x="1474" y="1401" width="1.44324" height="1.44324" fill="white" fill-opacity="0.6"/>
<rect x="491" y="1699" width="1.27934" height="1.27934" fill="white" fill-opacity="0.5"/>
<rect x="1233" y="525" width="2.89756" height="2.89756" fill="white" fill-opacity="0.6"/>
<rect x="603" y="1642" width="2.60857" height="2.60857" fill="white" fill-opacity="0.4"/>
<rect x="424" y="1772" width="2.38449" height="2.38449" fill="white" fill-opacity="0.5"/>
<rect x="434" y="1521" width="1.13417" height="1.13417" fill="white" fill-opacity="0.4"/>
<rect x="828" y="1217" width="2.13669" height="2.13669" fill="white" fill-opacity="0.3"/>
<rect x="1590" y="963" width="1.79256" height="1.79256" fill="white" fill-opacity="0.4"/>
<rect x="1394" y="143" width="1.67924" height="1.67924" fill="white" fill-opacity="0.4"/>
<rect x="619" y="891" width="1.1992" height="1.1992" fill="white" fill-opacity="0.3"/>
<rect x="140" y="1010" width="2.3683" height="2.3683" fill="white" fill-opacity="0.3"/>
<rect x="1117" y="1684" width="2.95919" height="2.95919" fill="white" fill-opacity="0.6"/>
<rect x="1628" y="1140" width="1.75837" height="1.75837" fill="white" fill-opacity="0.3"/>
<rect x="813" y="264" width="1.69191" height="1.69191" fill="white" fill-opacity="0.4"/>
<rect x="1297" y="9" width="2.68101" height="2.68101" fill="white" fill-opacity="0.5"/>
<rect x="49" y="1253" width="1.78223" height="1.78223" fill="white" fill-opacity="0.4"/>
<rect x="704" y="1370" width="2.96271" height="2.96271" fill="white" fill-opacity="0.6"/>
<rect x="588" y="89" width="2.1572" height="2.1572" fill="white" fill-opacity="0.3"/>
<rect x="941" y="229" width="2.52268" height="2.52268" fill="white" fill-opacity="0.4"/>
<rect x="1260" y="1809" width="2.3763" height="2.3763" fill="white" fill-opacity="0.4"/>
<rect x="1627" y="1235" width="2.86864" height="2.86864" fill="white" fill-opacity="0.3"/>
<rect x="385" y="1309" width="2.64059" height="2.64059" fill="white" fill-opacity="0.4"/>
<rect x="509" y="311" width="1.68348" height="1.68348" fill="white" fill-opacity="0.6"/>
<rect x="149" y="1170" width="1.3347" height="1.3347" fill="white" fill-opacity="0.4"/>
<rect x="421" y="137" width="1.25649" height="1.25649" fill="white" fill-opacity="0.5"/>
<rect x="1658" y="290" width="1.44997" height="1.44997" fill="white" fill-opacity="0.3"/>
<rect x="1343" y="831" width="1.04106" height="1.04106" fill="white" fill-opacity="0.3"/>
<rect x="115" y="78" width="1.7092" height="1.7092" fill="white" fill-opacity="0.4"/>
<rect x="1397" y="256" width="1.07546" height="1.07546" fill="white" fill-opacity="0.5"/>
<rect x="289" y="1216" width="2.54719" height="2.54719" fill="white" fill-opacity="0.4"/>
<rect x="1287" y="1704" width="1.37657" height="1.37657" fill="white" fill-opacity="0.6"/>
<rect x="52" y="893" width="2.51862" height="2.51862" fill="white" fill-opacity="0.5"/>
<rect x="1676" y="313" width="2.13803" height="2.13803" fill="white" fill-opacity="0.5"/>
<rect x="1585" y="862" width="1.07798" height="1.07798" fill="white" fill-opacity="0.5"/>
<rect x="404" y="400" width="1.39415" height="1.39415" fill="white" fill-opacity="0.4"/>
<rect x="1378" y="1647" width="2.02813" height="2.02813" fill="white" fill-opacity="0.6"/>
<rect x="622" y="389" width="1.28612" height="1.28612" fill="white" fill-opacity="0.6"/>
<rect x="1185" y="604" width="1.65245" height="1.65245" fill="white" fill-opacity="0.4"/>
<rect x="259" y="189" width="1.38689" height="1.38689" fill="white" fill-opacity="0.3"/>
<rect x="74" y="1788" width="2.15178" height="2.15178" fill="white" fill-opacity="0.4"/>
<rect x="1342" y="1667" width="2.2532" height="2.2532" fill="white" fill-opacity="0.5"/>
<rect x="372" y="1044" width="1.20908" height="1.20908" fill="white" fill-opacity="0.4"/>
<rect x="425" y="1679" width="1.90111" height="1.90111" fill="white" fill-opacity="0.4"/>
<rect x="1044" y="42" width="1.46206" height="1.46206" fill="white" fill-opacity="0.6"/>
<rect x="849" y="207" width="2.71561" height="2.71561" fill="white" fill-opacity="0.4"/>
<rect x="1216" y="1341" width="1.12002" height="1.12002" fill="white" fill-opacity="0.5"/>
<rect x="8" y="1818" width="1.97578" height="1.97578" fill="white" fill-opacity="0.3"/>
<rect x="42" y="1349" width="2.85172" height="2.85172" fill="white" fill-opacity="0.4"/>
<rect x="780" y="1298" width="2.25981" height="2.25981" fill="white" fill-opacity="0.5"/>
<rect x="346" y="1215" width="1.6336" height="1.6336" fill="white" fill-opacity="0.5"/>
<rect x="1831" y="269" width="2.19977" height="2.19977" fill="white" fill-opacity="0.5"/>
<rect x="1469" y="1067" width="1.02078" height="1.02078" fill="white" fill-opacity="0.6"/>
<rect x="1888" y="659" width="2.08343" height="2.08343" fill="white" fill-opacity="0.5"/>
<rect x="507" y="1545" width="2.83614" height="2.83614" fill="white" fill-opacity="0.4"/>
<rect x="1790" y="1376" width="1.29956" height="1.29956" fill="white" fill-opacity="0.4"/>
<rect x="1322" y="1502" width="1.14429" height="1.14429" fill="white" fill-opacity="0.5"/>
<path d="M967 56L967 775" stroke="white"/>
</g>
<rect width="1920" height="1889" fill="black"/>
<rect x="614" y="311" width="2.65506" height="2.65506" fill="white" fill-opacity="0.3"/>
<rect x="1738" y="554" width="2.74335" height="2.74335" fill="white" fill-opacity="0.5"/>
<rect x="847" y="780" width="1.7604" height="1.7604" fill="white" fill-opacity="0.3"/>
<rect x="891" y="68" width="1.17713" height="1.17713" fill="white" fill-opacity="0.5"/>
<rect x="1460" y="401" width="2.4946" height="2.4946" fill="white" fill-opacity="0.4"/>
<rect x="1492" y="195" width="2.17427" height="2.17427" fill="white" fill-opacity="0.3"/>
<rect x="1427" y="145" width="1.839" height="1.839" fill="white" fill-opacity="0.6"/>
<rect x="1281" y="1037" width="2.88841" height="2.88841" fill="white" fill-opacity="0.4"/>
<rect x="479" y="708" width="1.31479" height="1.31479" fill="white" fill-opacity="0.6"/>
<rect x="1481" y="1769" width="2.55322" height="2.55322" fill="white" fill-opacity="0.3"/>
<rect x="359" y="286" width="1.60154" height="1.60154" fill="white" fill-opacity="0.3"/>
<rect x="783" y="585" width="1.45065" height="1.45065" fill="white" fill-opacity="0.4"/>
<rect x="730" y="1615" width="2.49116" height="2.49116" fill="white" fill-opacity="0.5"/>
<rect x="1644" y="187" width="1.08836" height="1.08836" fill="white" fill-opacity="0.3"/>
<rect x="1270" y="278" width="1.26074" height="1.26074" fill="white" fill-opacity="0.3"/>
<rect x="823" y="1289" width="1.80211" height="1.80211" fill="white" fill-opacity="0.6"/>
<rect x="448" y="1343" width="1.66192" height="1.66192" fill="white" fill-opacity="0.4"/>
<rect x="557" y="560" width="2.30361" height="2.30361" fill="white" fill-opacity="0.4"/>
<rect x="599" y="457" width="1.49298" height="1.49298" fill="white" fill-opacity="0.4"/>
<rect x="762" y="1101" width="1.23428" height="1.23428" fill="white" fill-opacity="0.5"/>
<rect x="23" y="802" width="2.70597" height="2.70597" fill="white" fill-opacity="0.3"/>
<rect x="1380" y="1321" width="2.1987" height="2.1987" fill="white" fill-opacity="0.4"/>
<rect x="724" y="1762" width="2.05643" height="2.05643" fill="white" fill-opacity="0.5"/>
<rect x="522" y="1287" width="1.87629" height="1.87629" fill="white" fill-opacity="0.5"/>
<rect x="1469" y="1264" width="1.78009" height="1.78009" fill="white" fill-opacity="0.5"/>
<rect x="422" y="50" width="1.68772" height="1.68772" fill="white" fill-opacity="0.4"/>
<rect x="1894" y="702" width="1.7093" height="1.7093" fill="white" fill-opacity="0.3"/>
<rect x="532" y="593" width="1.77467" height="1.77467" fill="white" fill-opacity="0.6"/>
<rect x="155" y="845" width="2.47909" height="2.47909" fill="white" fill-opacity="0.4"/>
<rect x="61" y="852" width="2.17357" height="2.17357" fill="white" fill-opacity="0.3"/>
<rect x="116" y="1393" width="2.53973" height="2.53973" fill="white" fill-opacity="0.4"/>
<rect x="233" y="838" width="1.6444" height="1.6444" fill="white" fill-opacity="0.4"/>
<rect x="500" y="1650" width="2.20442" height="2.20442" fill="white" fill-opacity="0.6"/>
<rect x="814" y="130" width="1.36648" height="1.36648" fill="white" fill-opacity="0.5"/>
<rect x="154" y="261" width="1.41843" height="1.41843" fill="white" fill-opacity="0.4"/>
<rect x="1853" y="648" width="2.13259" height="2.13259" fill="white" fill-opacity="0.3"/>
<rect x="348" y="1068" width="2.24907" height="2.24907" fill="white" fill-opacity="0.4"/>
<rect x="813" y="1390" width="1.28526" height="1.28526" fill="white" fill-opacity="0.6"/>
<rect x="749" y="1525" width="2.16633" height="2.16633" fill="white" fill-opacity="0.4"/>
<rect x="1395" y="408" width="1.06023" height="1.06023" fill="white" fill-opacity="0.6"/>
<rect x="543" y="1441" width="1.6003" height="1.6003" fill="white" fill-opacity="0.5"/>
<rect x="1293" y="1727" width="1.92789" height="1.92789" fill="white" fill-opacity="0.5"/>
<rect x="830" y="719" width="2.91775" height="2.91775" fill="white" fill-opacity="0.5"/>
<rect x="821" y="1398" width="2.88683" height="2.88683" fill="white" fill-opacity="0.4"/>
<rect x="806" y="793" width="1.96612" height="1.96612" fill="white" fill-opacity="0.4"/>
<rect x="1618" y="482" width="1.08532" height="1.08532" fill="white" fill-opacity="0.5"/>
<rect x="89" y="1441" width="1.93002" height="1.93002" fill="white" fill-opacity="0.4"/>
<rect x="1010" y="464" width="2.54769" height="2.54769" fill="white" fill-opacity="0.4"/>
<rect x="1701" y="432" width="1.05331" height="1.05331" fill="white" fill-opacity="0.6"/>
<rect x="1433" y="713" width="2.67732" height="2.67732" fill="white" fill-opacity="0.3"/>
<rect x="882" y="799" width="1.84372" height="1.84372" fill="white" fill-opacity="0.3"/>
<rect x="272" y="1146" width="1.89496" height="1.89496" fill="white" fill-opacity="0.3"/>
<rect x="1433" y="498" width="1.91373" height="1.91373" fill="white" fill-opacity="0.5"/>
<rect x="1709" y="1685" width="1.46667" height="1.46667" fill="white" fill-opacity="0.6"/>
<rect x="1641" y="958" width="1.17326" height="1.17326" fill="white" fill-opacity="0.4"/>
<rect x="498" y="35" width="1.25277" height="1.25277" fill="white" fill-opacity="0.5"/>
<rect x="756" y="29" width="1.54682" height="1.54682" fill="white" fill-opacity="0.3"/>
<rect x="813" y="1041" width="1.59335" height="1.59335" fill="white" fill-opacity="0.6"/>
<rect x="454" y="1377" width="2.91132" height="2.91132" fill="white" fill-opacity="0.3"/>
<rect x="907" y="955" width="1.76404" height="1.76404" fill="white" fill-opacity="0.5"/>
<rect x="1625" y="749" width="1.19958" height="1.19958" fill="white" fill-opacity="0.5"/>
<rect x="1204" y="1700" width="2.51733" height="2.51733" fill="white" fill-opacity="0.4"/>
<rect x="1281" y="138" width="1.67965" height="1.67965" fill="white" fill-opacity="0.5"/>
<rect x="1757" y="995" width="1.84468" height="1.84468" fill="white" fill-opacity="0.4"/>
<rect x="895" y="299" width="1.05069" height="1.05069" fill="white" fill-opacity="0.4"/>
<rect x="26" y="550" width="1.08303" height="1.08303" fill="white" fill-opacity="0.6"/>
<rect x="1422" y="525" width="2.6874" height="2.6874" fill="white" fill-opacity="0.4"/>
<rect x="1033" y="410" width="2.75907" height="2.75907" fill="white" fill-opacity="0.6"/>
<rect x="1457" y="1553" width="1.34886" height="1.34886" fill="white" fill-opacity="0.5"/>
<rect x="1890" y="863" width="2.69226" height="2.69226" fill="white" fill-opacity="0.6"/>
<rect x="742" y="641" width="1.83816" height="1.83816" fill="white" fill-opacity="0.5"/>
<rect x="1291" y="881" width="2.42423" height="2.42423" fill="white" fill-opacity="0.6"/>
<rect x="215" y="1444" width="1.90221" height="1.90221" fill="white" fill-opacity="0.4"/>
<rect x="579" y="1864" width="2.39338" height="2.39338" fill="white" fill-opacity="0.5"/>
<rect x="1398" y="15" width="2.23831" height="2.23831" fill="white" fill-opacity="0.6"/>
<rect x="1769" y="346" width="1.82752" height="1.82752" fill="white" fill-opacity="0.4"/>
<rect x="980" y="886" width="1.36684" height="1.36684" fill="white" fill-opacity="0.4"/>
<rect x="1683" y="1333" width="2.01526" height="2.01526" fill="white" fill-opacity="0.4"/>
<rect x="1405" y="554" width="1.67303" height="1.67303" fill="white" fill-opacity="0.5"/>
<rect x="610" y="191" width="1.12659" height="1.12659" fill="white" fill-opacity="0.3"/>
<rect x="1391" y="844" width="2.46221" height="2.46221" fill="white" fill-opacity="0.4"/>
<rect x="664" y="1532" width="1.21567" height="1.21567" fill="white" fill-opacity="0.5"/>
<rect x="449" y="96" width="1.13782" height="1.13782" fill="white" fill-opacity="0.4"/>
<rect x="1287" y="333" width="1.42433" height="1.42433" fill="white" fill-opacity="0.5"/>
<rect x="1415" y="401" width="2.76349" height="2.76349" fill="white" fill-opacity="0.6"/>
<rect x="1272" y="564" width="2.02787" height="2.02787" fill="white" fill-opacity="0.5"/>
<rect x="122" y="1850" width="2.77724" height="2.77724" fill="white" fill-opacity="0.3"/>
<rect x="292" y="1338" width="1.0234" height="1.0234" fill="white" fill-opacity="0.4"/>
<rect x="414" y="367" width="2.28142" height="2.28142" fill="white" fill-opacity="0.4"/>
<rect x="853" y="619" width="2.75179" height="2.75179" fill="white" fill-opacity="0.4"/>
<rect x="791" y="662" width="1.89493" height="1.89493" fill="white" fill-opacity="0.5"/>
<rect x="319" y="335" width="1.51979" height="1.51979" fill="white" fill-opacity="0.6"/>
<rect x="4" y="1551" width="1.66043" height="1.66043" fill="white" fill-opacity="0.5"/>
<rect x="1112" y="644" width="2.11919" height="2.11919" fill="white" fill-opacity="0.4"/>
<rect x="404" y="891" width="1.09556" height="1.09556" fill="white" fill-opacity="0.6"/>
<rect x="514" y="748" width="1.20861" height="1.20861" fill="white" fill-opacity="0.3"/>
<rect x="1870" y="1778" width="1.29791" height="1.29791" fill="white" fill-opacity="0.4"/>
<rect x="57" y="1719" width="2.11534" height="2.11534" fill="white" fill-opacity="0.5"/>
<rect x="1911" y="1313" width="2.86189" height="2.86189" fill="white" fill-opacity="0.3"/>
<rect x="124" y="608" width="1.95061" height="1.95061" fill="white" fill-opacity="0.3"/>
<rect x="872" y="872" width="2.67297" height="2.67297" fill="white" fill-opacity="0.3"/>
<rect x="516" y="845" width="2.33943" height="2.33943" fill="white" fill-opacity="0.6"/>
<rect x="923" y="1053" width="1.76581" height="1.76581" fill="white" fill-opacity="0.4"/>
<rect x="462" y="1110" width="2.56201" height="2.56201" fill="white" fill-opacity="0.5"/>
<rect x="934" y="101" width="1.99775" height="1.99775" fill="white" fill-opacity="0.4"/>
<rect x="630" y="1790" width="2.85868" height="2.85868" fill="white" fill-opacity="0.5"/>
<rect x="1599" y="1292" width="2.68608" height="2.68608" fill="white" fill-opacity="0.5"/>
<rect x="1505" y="1158" width="2.89909" height="2.89909" fill="white" fill-opacity="0.4"/>
<rect x="1800" y="267" width="2.23369" height="2.23369" fill="white" fill-opacity="0.4"/>
<rect x="791" y="361" width="2.10758" height="2.10758" fill="white" fill-opacity="0.5"/>
<rect x="178" y="1247" width="1.68021" height="1.68021" fill="white" fill-opacity="0.3"/>
<rect x="149" y="1867" width="1.30535" height="1.30535" fill="white" fill-opacity="0.3"/>
<rect x="520" y="1422" width="1.05526" height="1.05526" fill="white" fill-opacity="0.6"/>
<rect x="382" y="551" width="1.36778" height="1.36778" fill="white" fill-opacity="0.3"/>
<rect x="1190" y="945" width="1.20549" height="1.20549" fill="white" fill-opacity="0.6"/>
<rect x="316" y="1179" width="2.0292" height="2.0292" fill="white" fill-opacity="0.6"/>
<rect x="1295" y="652" width="1.88053" height="1.88053" fill="white" fill-opacity="0.6"/>
<rect x="1345" y="268" width="2.71913" height="2.71913" fill="white" fill-opacity="0.5"/>
<rect x="1238" y="1396" width="1.37103" height="1.37103" fill="white" fill-opacity="0.3"/>
<rect x="385" y="1606" width="2.82652" height="2.82652" fill="white" fill-opacity="0.4"/>
<rect x="799" y="827" width="2.99717" height="2.99717" fill="white" fill-opacity="0.3"/>
<rect x="659" y="203" width="2.62222" height="2.62222" fill="white" fill-opacity="0.6"/>
<rect x="1676" y="131" width="1.41541" height="1.41541" fill="white" fill-opacity="0.6"/>
<rect x="425" y="1615" width="1.43874" height="1.43874" fill="white" fill-opacity="0.3"/>
<rect x="493" y="543" width="2.7683" height="2.7683" fill="white" fill-opacity="0.6"/>
<rect x="1812" y="555" width="1.31115" height="1.31115" fill="white" fill-opacity="0.6"/>
<rect x="521" y="671" width="1.04338" height="1.04338" fill="white" fill-opacity="0.4"/>
<rect x="714" y="1322" width="1.67102" height="1.67102" fill="white" fill-opacity="0.6"/>
<rect x="1014" y="1542" width="2.76851" height="2.76851" fill="white" fill-opacity="0.3"/>
<rect x="627" y="49" width="1.71776" height="1.71776" fill="white" fill-opacity="0.4"/>
<rect x="942" y="843" width="1.28797" height="1.28797" fill="white" fill-opacity="0.5"/>
<rect x="709" y="1084" width="1.22126" height="1.22126" fill="white" fill-opacity="0.4"/>
<rect x="1264" y="420" width="1.29151" height="1.29151" fill="white" fill-opacity="0.5"/>
<rect x="1454" y="831" width="1.00076" height="1.00076" fill="white" fill-opacity="0.5"/>
<rect x="1461" y="186" width="2.20546" height="2.20546" fill="white" fill-opacity="0.3"/>
<rect x="1602" y="1490" width="1.21145" height="1.21145" fill="white" fill-opacity="0.4"/>
<rect x="1279" y="56" width="1.57443" height="1.57443" fill="white" fill-opacity="0.6"/>
<rect x="281" y="1046" width="2.55367" height="2.55367" fill="white" fill-opacity="0.5"/>
<rect x="1715" y="767" width="1.89228" height="1.89228" fill="white" fill-opacity="0.4"/>
<rect x="1249" y="1240" width="2.47819" height="2.47819" fill="white" fill-opacity="0.6"/>
<rect x="1477" y="1121" width="2.42742" height="2.42742" fill="white" fill-opacity="0.6"/>
<rect x="878" y="1489" width="2.38391" height="2.38391" fill="white" fill-opacity="0.4"/>
<rect x="613" y="160" width="1.39045" height="1.39045" fill="white" fill-opacity="0.6"/>
<rect x="648" y="707" width="1.26682" height="1.26682" fill="white" fill-opacity="0.6"/>
<rect x="1408" y="527" width="2.70447" height="2.70447" fill="white" fill-opacity="0.4"/>
<rect x="1040" y="857" width="2.85263" height="2.85263" fill="white" fill-opacity="0.4"/>
<rect x="1665" y="195" width="2.96493" height="2.96493" fill="white" fill-opacity="0.5"/>
<rect x="938" y="847" width="1.40013" height="1.40013" fill="white" fill-opacity="0.4"/>
<rect x="160" y="1545" width="2.33992" height="2.33992" fill="white" fill-opacity="0.4"/>
<rect x="327" y="165" width="2.31664" height="2.31664" fill="white" fill-opacity="0.4"/>
<rect x="623" y="1765" width="1.49368" height="1.49368" fill="white" fill-opacity="0.5"/>
<rect x="754" y="621" width="1.03555" height="1.03555" fill="white" fill-opacity="0.4"/>
<rect x="528" y="1574" width="1.94978" height="1.94978" fill="white" fill-opacity="0.6"/>
<rect x="1214" y="1338" width="1.49905" height="1.49905" fill="white" fill-opacity="0.3"/>
<rect x="343" y="1556" width="2.4676" height="2.4676" fill="white" fill-opacity="0.5"/>
<rect x="904" y="749" width="1.47161" height="1.47161" fill="white" fill-opacity="0.4"/>
<rect x="1252" y="1688" width="2.66299" height="2.66299" fill="white" fill-opacity="0.3"/>
<rect x="1865" y="3" width="2.78455" height="2.78455" fill="white" fill-opacity="0.6"/>
<rect x="919" y="1799" width="2.9428" height="2.9428" fill="white" fill-opacity="0.5"/>
<rect x="20" y="958" width="2.64115" height="2.64115" fill="white" fill-opacity="0.3"/>
<rect x="234" y="668" width="1.28936" height="1.28936" fill="white" fill-opacity="0.5"/>
<rect x="1138" y="570" width="2.39316" height="2.39316" fill="white" fill-opacity="0.3"/>
<rect x="350" y="982" width="2.50293" height="2.50293" fill="white" fill-opacity="0.6"/>
<rect x="881" y="1135" width="2.40839" height="2.40839" fill="white" fill-opacity="0.3"/>
<rect x="1452" y="1029" width="2.2412" height="2.2412" fill="white" fill-opacity="0.4"/>
<rect x="1422" y="1140" width="2.82367" height="2.82367" fill="white" fill-opacity="0.3"/>
<rect x="130" y="196" width="2.0929" height="2.0929" fill="white" fill-opacity="0.5"/>
<rect x="1164" y="1673" width="1.3372" height="1.3372" fill="white" fill-opacity="0.5"/>
<rect x="1312" y="1206" width="1.01906" height="1.01906" fill="white" fill-opacity="0.6"/>
<rect x="903" y="1202" width="2.01903" height="2.01903" fill="white" fill-opacity="0.4"/>
<rect x="1258" y="1352" width="2.69149" height="2.69149" fill="white" fill-opacity="0.5"/>
<rect x="1871" y="1601" width="1.27973" height="1.27973" fill="white" fill-opacity="0.4"/>
<rect x="629" y="307" width="2.00517" height="2.00517" fill="white" fill-opacity="0.3"/>
<rect x="478" y="1248" width="2.50963" height="2.50963" fill="white" fill-opacity="0.5"/>
<rect x="1239" y="1035" width="2.62746" height="2.62746" fill="white" fill-opacity="0.5"/>
<rect x="1182" y="1064" width="1.2994" height="1.2994" fill="white" fill-opacity="0.3"/>
<rect x="579" y="822" width="1.41866" height="1.41866" fill="white" fill-opacity="0.5"/>
<rect x="472" y="1717" width="2.56012" height="2.56012" fill="white" fill-opacity="0.4"/>
<rect x="1655" y="289" width="2.09292" height="2.09292" fill="white" fill-opacity="0.6"/>
<rect x="285" y="292" width="2.05472" height="2.05472" fill="white" fill-opacity="0.3"/>
<rect x="1588" y="1060" width="2.71311" height="2.71311" fill="white" fill-opacity="0.5"/>
<rect x="992" y="1768" width="2.24076" height="2.24076" fill="white" fill-opacity="0.4"/>
<rect x="471" y="1700" width="2.77655" height="2.77655" fill="white" fill-opacity="0.6"/>
<rect x="1399" y="468" width="2.27752" height="2.27752" fill="white" fill-opacity="0.4"/>
<rect x="9" y="1883" width="1.76813" height="1.76813" fill="white" fill-opacity="0.3"/>
<rect x="854" y="1685" width="1.91574" height="1.91574" fill="white" fill-opacity="0.4"/>
<rect x="808" y="347" width="2.61256" height="2.61256" fill="white" fill-opacity="0.4"/>
<rect x="326" y="1695" width="2.43344" height="2.43344" fill="white" fill-opacity="0.4"/>
<rect x="1686" y="884" width="1.26546" height="1.26546" fill="white" fill-opacity="0.4"/>
<rect x="1067" y="1667" width="1.43709" height="1.43709" fill="white" fill-opacity="0.5"/>
<rect x="1319" y="92" width="1.37651" height="1.37651" fill="white" fill-opacity="0.4"/>
<rect x="554" y="1655" width="1.85431" height="1.85431" fill="white" fill-opacity="0.4"/>
<rect x="1391" y="1098" width="2.27537" height="2.27537" fill="white" fill-opacity="0.5"/>
<rect x="275" y="1214" width="1.31667" height="1.31667" fill="white" fill-opacity="0.5"/>
<rect x="775" y="283" width="1.88424" height="1.88424" fill="white" fill-opacity="0.5"/>
<rect x="1165" y="1549" width="1.45106" height="1.45106" fill="white" fill-opacity="0.4"/>
<rect x="312" y="1170" width="1.6432" height="1.6432" fill="white" fill-opacity="0.5"/>
<rect x="598" y="1631" width="1.85287" height="1.85287" fill="white" fill-opacity="0.6"/>
<rect x="883" y="838" width="2.9547" height="2.9547" fill="white" fill-opacity="0.3"/>
<rect x="692" y="594" width="2.25922" height="2.25922" fill="white" fill-opacity="0.3"/>
<defs>
<clipPath id="clip0_8_311">
<rect width="1920" height="1889" fill="white"/>
</clipPath>
</defs>
</svg>
